<?xml version="1.0" encoding="UTF-8" standalone="no"?>
<!-- Created with Inkscape (http://www.inkscape.org/) -->

<svg
   xmlns:dc="http://purl.org/dc/elements/1.1/"
   xmlns:cc="http://creativecommons.org/ns#"
   xmlns:rdf="http://www.w3.org/1999/02/22-rdf-syntax-ns#"
   xmlns:svg="http://www.w3.org/2000/svg"
   xmlns="http://www.w3.org/2000/svg"
   xmlns:sodipodi="http://sodipodi.sourceforge.net/DTD/sodipodi-0.dtd"
   xmlns:inkscape="http://www.inkscape.org/namespaces/inkscape"
   id="svg2"
   version="1.1"
   inkscape:version="0.48.3.1 r9886"
   width="615.32043"
   height="480.92453"
   xml:space="preserve"
   sodipodi:docname="forecast.pdf"><metadata
     id="metadata8"><rdf:RDF><cc:Work
         rdf:about=""><dc:format>image/svg+xml</dc:format><dc:type
           rdf:resource="http://purl.org/dc/dcmitype/StillImage" /><dc:title></dc:title></cc:Work></rdf:RDF></metadata><defs
     id="defs6" /><sodipodi:namedview
     pagecolor="#ffffff"
     bordercolor="#666666"
     borderopacity="1"
     objecttolerance="10"
     gridtolerance="10"
     guidetolerance="10"
     inkscape:pageopacity="0"
     inkscape:pageshadow="2"
     inkscape:window-width="1366"
     inkscape:window-height="719"
     id="namedview4"
     showgrid="false"
     inkscape:zoom="1.1826854"
     inkscape:cx="302.04863"
     inkscape:cy="244.76026"
     inkscape:window-x="0"
     inkscape:window-y="25"
     inkscape:window-maximized="1"
     inkscape:current-layer="g12" /><g
     id="g10"
     inkscape:groupmode="layer"
     inkscape:label="forecast"
     transform="matrix(1.25,0,0,-1.25,0,480.92453)"><g
       id="g12"><g
         id="g14"
         transform="matrix(1,0,0,-1,0,384.73962)"><path
           d="m 63.137,338.66 7.199,0 m 401.922,0 -7.203,0 0.007,0"
           style="fill:none;stroke:#000000;stroke-opacity:1;stroke-width:0.8;stroke-linecap:butt;stroke-linejoin:miter;stroke-miterlimit:4;stroke-dasharray:none"
           id="path16" /></g><text
         transform="matrix(1,0,0,-1,24.216634,42.480005)"
         id="text18"><tspan
           style="fill:#000000;fill-opacity:1;fill-rule:nonzero;stroke:none;font-family:Arial;font-variant:normal;font-weight:normal;font-size:12;writing-mode:lr;-inkscape-font-specification:ArialMT"
           x="0"
           y="0"
           id="tspan20">0</tspan></text>
<g
         id="g22"
         transform="matrix(1,0,0,-1,0,384.73962)"><path
           d="m 37.535,292.258 7.199,0"
           style="fill:none;stroke:#000000;stroke-opacity:1;stroke-width:0.8;stroke-linecap:butt;stroke-linejoin:miter;stroke-miterlimit:4;stroke-dasharray:none"
           id="path24" /></g><text
         transform="matrix(1,0,0,-1,17.536946,88.880005)"
         id="text26"><tspan
           style="fill:#000000;fill-opacity:1;fill-rule:nonzero;stroke:none;font-family:Arial;font-variant:normal;font-weight:normal;font-size:12;writing-mode:lr;-inkscape-font-specification:ArialMT"
           x="0 6.672"
           y="0"
           sodipodi:role="line"
           id="tspan28">10</tspan></text>
<g
         id="g30"
         transform="matrix(1,0,0,-1,0,384.73962)"><path
           d="m 37.535,245.941 7.199,0"
           style="fill:none;stroke:#000000;stroke-opacity:1;stroke-width:0.8;stroke-linecap:butt;stroke-linejoin:miter;stroke-miterlimit:4;stroke-dasharray:none"
           id="path32" /></g><text
         transform="matrix(1,0,0,-1,17.536946,135.2)"
         id="text34"><tspan
           style="fill:#000000;fill-opacity:1;fill-rule:nonzero;stroke:none;font-family:Arial;font-variant:normal;font-weight:normal;font-size:12;writing-mode:lr;-inkscape-font-specification:ArialMT"
           x="0 6.672"
           y="0"
           sodipodi:role="line"
           id="tspan36">20</tspan></text>
<g
         id="g38"
         transform="matrix(1,0,0,-1,0,384.73962)"><path
           d="m 37.535,199.539 7.199,0"
           style="fill:none;stroke:#000000;stroke-opacity:1;stroke-width:0.8;stroke-linecap:butt;stroke-linejoin:miter;stroke-miterlimit:4;stroke-dasharray:none"
           id="path40" /></g><text
         transform="matrix(1,0,0,-1,17.536946,181.59999)"
         id="text42"><tspan
           style="fill:#000000;fill-opacity:1;fill-rule:nonzero;stroke:none;font-family:Arial;font-variant:normal;font-weight:normal;font-size:12;writing-mode:lr;-inkscape-font-specification:ArialMT"
           x="0 6.672"
           y="0"
           sodipodi:role="line"
           id="tspan44">30</tspan></text>
<g
         id="g46"
         transform="matrix(1,0,0,-1,0,384.73962)"><path
           d="m 37.535,153.219 7.199,0"
           style="fill:none;stroke:#000000;stroke-opacity:1;stroke-width:0.8;stroke-linecap:butt;stroke-linejoin:miter;stroke-miterlimit:4;stroke-dasharray:none"
           id="path48" /></g><text
         transform="matrix(1,0,0,-1,17.536946,227.91999)"
         id="text50"><tspan
           style="fill:#000000;fill-opacity:1;fill-rule:nonzero;stroke:none;font-family:Arial;font-variant:normal;font-weight:normal;font-size:12;writing-mode:lr;-inkscape-font-specification:ArialMT"
           x="0 6.672"
           y="0"
           sodipodi:role="line"
           id="tspan52">40</tspan></text>
<g
         id="g54"
         transform="matrix(1,0,0,-1,0,384.73962)"><path
           d="m 37.535,106.82 7.199,0"
           style="fill:none;stroke:#000000;stroke-opacity:1;stroke-width:0.8;stroke-linecap:butt;stroke-linejoin:miter;stroke-miterlimit:4;stroke-dasharray:none"
           id="path56" /></g><text
         transform="matrix(1,0,0,-1,17.536946,274.31999)"
         id="text58"><tspan
           style="fill:#000000;fill-opacity:1;fill-rule:nonzero;stroke:none;font-family:Arial;font-variant:normal;font-weight:normal;font-size:12;writing-mode:lr;-inkscape-font-specification:ArialMT"
           x="0 6.672"
           y="0"
           sodipodi:role="line"
           id="tspan60">50</tspan></text>
<g
         id="g62"
         transform="matrix(1,0,0,-1,0,384.73962)"><path
           d="m 37.535,60.5 7.199,0"
           style="fill:none;stroke:#000000;stroke-opacity:1;stroke-width:0.8;stroke-linecap:butt;stroke-linejoin:miter;stroke-miterlimit:4;stroke-dasharray:none"
           id="path64" /></g><text
         transform="matrix(1,0,0,-1,17.536946,320.64)"
         id="text66"><tspan
           style="fill:#000000;fill-opacity:1;fill-rule:nonzero;stroke:none;font-family:Arial;font-variant:normal;font-weight:normal;font-size:12;writing-mode:lr;-inkscape-font-specification:ArialMT"
           x="0 6.672"
           y="0"
           sodipodi:role="line"
           id="tspan68">60</tspan></text>
<g
         id="g70"
         transform="matrix(1,0,0,-1,0,384.73962)"><path
           d="m 37.535,14.102 7.199,0"
           style="fill:none;stroke:#000000;stroke-opacity:1;stroke-width:0.8;stroke-linecap:butt;stroke-linejoin:miter;stroke-miterlimit:4;stroke-dasharray:none"
           id="path72" /></g><text
         transform="matrix(1,0,0,-1,17.536946,367.04)"
         id="text74"><tspan
           style="fill:#000000;fill-opacity:1;fill-rule:nonzero;stroke:none;font-family:Arial;font-variant:normal;font-weight:normal;font-size:12;writing-mode:lr;-inkscape-font-specification:ArialMT"
           x="0 6.672"
           y="0"
           sodipodi:role="line"
           id="tspan76">70</tspan><tspan
           style="fill:#000000;fill-opacity:1;fill-rule:nonzero;stroke:none;font-family:Arial;font-variant:normal;font-weight:normal;font-size:12;writing-mode:lr;-inkscape-font-specification:ArialMT"
           x="42.259536"
           y="338.95999"
           id="tspan78">0</tspan></text>
<g
         id="g80"
         transform="matrix(1,0,0,-1,0,384.73962)"><path
           d="m 114.258,338.66 0,-7.199"
           style="fill:none;stroke:#000000;stroke-opacity:1;stroke-width:0.8;stroke-linecap:butt;stroke-linejoin:miter;stroke-miterlimit:4;stroke-dasharray:none"
           id="path82" /></g><text
         transform="matrix(1,0,0,-1,107.57664,28.080005)"
         id="text84"><tspan
           style="fill:#000000;fill-opacity:1;fill-rule:nonzero;stroke:none;font-family:Arial;font-variant:normal;font-weight:normal;font-size:12;writing-mode:lr;-inkscape-font-specification:ArialMT"
           x="0 6.672"
           y="0"
           sodipodi:role="line"
           id="tspan86">20</tspan></text>
<g
         id="g88"
         transform="matrix(1,0,0,-1,0,384.73962)"><path
           d="m 165.457,338.66 0,-7.199"
           style="fill:none;stroke:#000000;stroke-opacity:1;stroke-width:0.8;stroke-linecap:butt;stroke-linejoin:miter;stroke-miterlimit:4;stroke-dasharray:none"
           id="path90" /></g><text
         transform="matrix(1,0,0,-1,158.77664,28.080005)"
         id="text92"><tspan
           style="fill:#000000;fill-opacity:1;fill-rule:nonzero;stroke:none;font-family:Arial;font-variant:normal;font-weight:normal;font-size:12;writing-mode:lr;-inkscape-font-specification:ArialMT"
           x="0 6.672"
           y="0"
           sodipodi:role="line"
           id="tspan94">40</tspan></text>
<g
         id="g96"
         transform="matrix(1,0,0,-1,0,384.73962)"><path
           d="m 216.578,338.66 0,-7.199"
           style="fill:none;stroke:#000000;stroke-opacity:1;stroke-width:0.8;stroke-linecap:butt;stroke-linejoin:miter;stroke-miterlimit:4;stroke-dasharray:none"
           id="path98" /></g><text
         transform="matrix(1,0,0,-1,209.89663,28.080005)"
         id="text100"><tspan
           style="fill:#000000;fill-opacity:1;fill-rule:nonzero;stroke:none;font-family:Arial;font-variant:normal;font-weight:normal;font-size:12;writing-mode:lr;-inkscape-font-specification:ArialMT"
           x="0 6.672"
           y="0"
           sodipodi:role="line"
           id="tspan102">60</tspan></text>
<g
         id="g104"
         transform="matrix(1,0,0,-1,0,384.73962)"><path
           d="m 267.695,338.66 0,-7.199"
           style="fill:none;stroke:#000000;stroke-opacity:1;stroke-width:0.8;stroke-linecap:butt;stroke-linejoin:miter;stroke-miterlimit:4;stroke-dasharray:none"
           id="path106" /></g><text
         transform="matrix(1,0,0,-1,261.01663,28.080005)"
         id="text108"><tspan
           style="fill:#000000;fill-opacity:1;fill-rule:nonzero;stroke:none;font-family:Arial;font-variant:normal;font-weight:normal;font-size:12;writing-mode:lr;-inkscape-font-specification:ArialMT"
           x="0 6.672"
           y="0"
           sodipodi:role="line"
           id="tspan110">80</tspan></text>
<g
         id="g112"
         transform="matrix(1,0,0,-1,0,384.73962)"><path
           d="m 318.816,338.66 0,-7.199"
           style="fill:none;stroke:#000000;stroke-opacity:1;stroke-width:0.8;stroke-linecap:butt;stroke-linejoin:miter;stroke-miterlimit:4;stroke-dasharray:none"
           id="path114" /></g><text
         transform="matrix(1,0,0,-1,308.7968,28.080005)"
         id="text116"><tspan
           style="fill:#000000;fill-opacity:1;fill-rule:nonzero;stroke:none;font-family:Arial;font-variant:normal;font-weight:normal;font-size:12;writing-mode:lr;-inkscape-font-specification:ArialMT"
           x="0 6.672 13.344"
           y="0"
           sodipodi:role="line"
           id="tspan118">100</tspan></text>
<g
         id="g120"
         transform="matrix(1,0,0,-1,0,384.73962)"><path
           d="m 370.016,338.66 0,-7.199"
           style="fill:none;stroke:#000000;stroke-opacity:1;stroke-width:0.8;stroke-linecap:butt;stroke-linejoin:miter;stroke-miterlimit:4;stroke-dasharray:none"
           id="path122" /></g><text
         transform="matrix(1,0,0,-1,359.9968,28.080005)"
         id="text124"><tspan
           style="fill:#000000;fill-opacity:1;fill-rule:nonzero;stroke:none;font-family:Arial;font-variant:normal;font-weight:normal;font-size:12;writing-mode:lr;-inkscape-font-specification:ArialMT"
           x="0 6.672 13.344"
           y="0"
           sodipodi:role="line"
           id="tspan126">120</tspan></text>
<g
         id="g128"
         transform="matrix(1,0,0,-1,0,384.73962)"><path
           d="m 421.137,338.66 0,-7.199"
           style="fill:none;stroke:#000000;stroke-opacity:1;stroke-width:0.8;stroke-linecap:butt;stroke-linejoin:miter;stroke-miterlimit:4;stroke-dasharray:none"
           id="path130" /></g><text
         transform="matrix(1,0,0,-1,411.1168,28.080005)"
         id="text132"><tspan
           style="fill:#000000;fill-opacity:1;fill-rule:nonzero;stroke:none;font-family:Arial;font-variant:normal;font-weight:normal;font-size:12;writing-mode:lr;-inkscape-font-specification:ArialMT"
           x="0 6.672 13.344"
           y="0"
           sodipodi:role="line"
           id="tspan134">140</tspan></text>
<g
         id="g136"
         transform="matrix(1,0,0,-1,0,384.73962)"><path
           d="m 472.258,338.66 0,-7.199"
           style="fill:none;stroke:#000000;stroke-opacity:1;stroke-width:0.8;stroke-linecap:butt;stroke-linejoin:miter;stroke-miterlimit:4;stroke-dasharray:none"
           id="path138" /></g><text
         transform="matrix(1,0,0,-1,462.23682,28.080005)"
         id="text140"><tspan
           style="fill:#000000;fill-opacity:1;fill-rule:nonzero;stroke:none;font-family:Arial;font-variant:normal;font-weight:normal;font-size:12;writing-mode:lr;-inkscape-font-specification:ArialMT"
           x="0 6.672 13.344"
           y="0"
           sodipodi:role="line"
           id="tspan142">160</tspan></text>
<g
         id="g144"
         transform="matrix(1,0,0,-1,0,384.73962)"><path
           d="m 37.535,14.102 0,324.558"
           style="fill:none;stroke:#000000;stroke-opacity:1;stroke-width:0.8;stroke-linecap:butt;stroke-linejoin:miter;stroke-miterlimit:4;stroke-dasharray:none"
           id="path146" /></g><text
         transform="matrix(0,1,1,0,8.736326,142.92937)"
         id="text148"><tspan
           style="fill:#000000;fill-opacity:1;fill-rule:nonzero;stroke:none;font-family:Arial;font-variant:normal;font-weight:normal;font-size:12;writing-mode:lr;-inkscape-font-specification:ArialMT"
           x="0 8.664 15.336 25.332 32.004 34.704 41.376 44.7 47.364 53.364 60.036 63.36 70.032 76.704 82.704 88.704 95.376 98.7 104.7 108.024 114.024 120.696 127.368"
           sodipodi:role="line"
           id="tspan150"
           y="0">Cumulative packets sent</tspan></text>
<text
         transform="matrix(1,0,0,-1,242.67678,11.280005)"
         id="text152"><tspan
           style="fill:#000000;fill-opacity:1;fill-rule:nonzero;stroke:none;font-family:Arial;font-variant:normal;font-weight:normal;font-size:12;writing-mode:lr;-inkscape-font-specification:ArialMT"
           x="0 3.324 5.988 15.984 22.656 25.98 29.976 40.008 46.008"
           y="0"
           sodipodi:role="line"
           id="tspan154">time (ms)</tspan></text>
<g
         id="g156"
         transform="matrix(1,0,0,-1,0,384.73962)"><path
           d="m 314.52,106.98 -251.348,0"
           style="fill:none;stroke:#0000ff;stroke-opacity:0.501961;stroke-width:1.2;stroke-linecap:butt;stroke-linejoin:miter;stroke-miterlimit:4;stroke-dasharray:3.6,1.2;stroke-dashoffset:0"
           id="path158" /></g><g
         id="g160"
         transform="matrix(1,0,0,-1,0,384.73962)"><path
           d="m 63.172,108.559 0,230.109"
           style="fill:none;stroke:#000000;stroke-opacity:1;stroke-width:1.2;stroke-linecap:butt;stroke-linejoin:miter;stroke-miterlimit:4;stroke-dasharray:none"
           id="path162" /></g><path
         d="m 57.848,263.353 5.304,14.422 5.305,-14.422 c -3.133,2.305 -7.418,2.289 -10.609,0 z"
         style="fill:#000000;fill-opacity:1;fill-rule:evenodd;stroke:none"
         id="path164" /><g
         id="g166"
         transform="matrix(1,0,0,-1,0,384.73962)"><path
           d="m 63.137,338.66 c -0.106,-29.344 12.734,-55.613 27.039,-75.359 7.804,-10.965 16.722,-20.922 25.601,-29.84 2.121,-2.043 3.762,-3.773 6.399,-6.16 16.605,-15.707 33.523,-28.571 51.762,-41.281 16.359,-11.18 33.812,-22.016 50.718,-31.602 13.004,-7.41 26.114,-14.52 39.84,-21.438 8.18,-4.265 16.059,-8.128 24.481,-12.16 4.449,-2.234 8.453,-4.039 13.359,-6.402 16.809,-7.844 33.258,-15.164 50.559,-22.559 23.968,-10.144 51.3,-20.511 79.027,-23.047 18.098,-2.8 36.082,-2.8 49.238,-3.156"
           style="fill:none;stroke:#ff0000;stroke-opacity:0.784314;stroke-width:4.4;stroke-linecap:round;stroke-linejoin:round;stroke-miterlimit:4;stroke-dasharray:none"
           id="path168" /></g><g
         id="g170"
         transform="matrix(1,0,0,-1,0,384.73962)"><path
           d="m 63.137,338.66 409.121,0"
           style="fill:none;stroke:#000000;stroke-opacity:1;stroke-width:0.8;stroke-linecap:butt;stroke-linejoin:miter;stroke-miterlimit:4;stroke-dasharray:none"
           id="path172" /></g><g
         id="g174"
         transform="matrix(1,0,0,-1,0,384.73962)"><path
           d="m 366.312,84.562 -252.121,0"
           style="fill:none;stroke:#0000ff;stroke-opacity:0.501961;stroke-width:1.2;stroke-linecap:butt;stroke-linejoin:miter;stroke-miterlimit:4;stroke-dasharray:3.6,1.2;stroke-dashoffset:0"
           id="path176" /></g><g
         id="g178"
         transform="matrix(1,0,0,-1,0,384.73962)"><path
           d="m 420.41,68.129 -255.242,0"
           style="fill:none;stroke:#0000ff;stroke-opacity:0.501961;stroke-width:1.2;stroke-linecap:butt;stroke-linejoin:miter;stroke-miterlimit:4;stroke-dasharray:3.6,1.2;stroke-dashoffset:0"
           id="path180" /></g><g
         id="g182"
         transform="matrix(1,0,0,-1,0,384.73962)"><path
           d="m 165.477,69.371 0.027,14.606"
           style="fill:none;stroke:#000000;stroke-opacity:1;stroke-width:1.2;stroke-linecap:butt;stroke-linejoin:miter;stroke-miterlimit:4;stroke-dasharray:none"
           id="path184" /></g><path
         d="m 160.176,302.529 5.277,14.433 5.332,-14.414 c -3.137,2.301 -7.422,2.278 -10.609,-0.019 z"
         style="fill:#000000;fill-opacity:1;fill-rule:evenodd;stroke:none"
         id="path186" /><g
         id="g292"
         transform="matrix(1,0,0,-1,0,384.73962)"><path
           d="m 114.277,86.121 0,20.266"
           style="fill:none;stroke:#000000;stroke-opacity:1;stroke-width:1.2;stroke-linecap:butt;stroke-linejoin:miter;stroke-miterlimit:4;stroke-dasharray:none"
           id="path294" /></g><path
         d="m 108.953,285.79 5.305,14.422 5.301,-14.422 c -3.129,2.305 -7.414,2.289 -10.606,0 z"
         style="fill:#000000;fill-opacity:1;fill-rule:evenodd;stroke:none"
         id="path296" /><path
         d="m 157.16301,282.111 18.8694,0 0,-10.215 -18.8694,0 0,10.215 z"
         style="fill:#ffffff;fill-opacity:1;fill-rule:evenodd;stroke:none"
         id="path318"
         inkscape:connector-curvature="0" /><rect
         style="fill:#ffffff;fill-opacity:1;stroke:#ffffff;stroke-width:1;stroke-miterlimit:4;stroke-opacity:1;stroke-dasharray:none;stroke-dashoffset:0"
         id="rect3363"
         width="26.211535"
         height="137.82195"
         x="66.797134"
         y="186.67891"
         transform="matrix(0.8,0,0,-0.8,0,384.73962)" /><text
         xml:space="preserve"
         style="font-size:15.19999981px;font-style:normal;font-weight:normal;line-height:125%;letter-spacing:0px;word-spacing:0px;fill:#000000;fill-opacity:1;stroke:none;font-family:Arial;-inkscape-font-specification:Sans"
         x="126.55395"
         y="69.222404"
         id="text3299"
         sodipodi:linespacing="125%"
         transform="matrix(0,1,1,0,0,0)"><tspan
           sodipodi:role="line"
           id="tspan3301"
           x="126.55395"
           y="69.222404"
           style="font-size:19.20000076px;font-style:normal;font-variant:normal;font-weight:normal;font-stretch:normal;font-family:Droid Sans;-inkscape-font-specification:Droid Sans">Send <tspan
   style="font-size:19.20000076px;font-weight:bold;fill:#ff0000;-inkscape-font-specification:Droid Sans Bold"
   id="tspan3353">50</tspan> pkts</tspan></text>
<text
         xml:space="preserve"
         style="font-size:15.19999981px;font-style:normal;font-weight:normal;line-height:125%;letter-spacing:0px;word-spacing:0px;fill:#000000;fill-opacity:1;stroke:none;font-family:Arial;-inkscape-font-specification:Sans"
         x="215.56287"
         y="121.33289"
         id="text3299-5"
         sodipodi:linespacing="125%"
         transform="matrix(0,1,1,0,0,0)"><tspan
           sodipodi:role="line"
           id="tspan3301-3"
           x="215.56287"
           y="121.33289"
           style="font-size:19.20000076px;font-style:normal;font-variant:normal;font-weight:normal;font-stretch:normal;font-family:Droid Sans;-inkscape-font-specification:Droid Sans">Send <tspan
   style="font-size:19.20000076px;font-weight:bold;fill:#ff0000;-inkscape-font-specification:Droid Sans Bold"
   id="tspan3353-7">5</tspan></tspan></text>
<text
         xml:space="preserve"
         style="font-size:15.19999981px;font-style:normal;font-weight:normal;line-height:125%;letter-spacing:0px;word-spacing:0px;fill:#000000;fill-opacity:1;stroke:none;font-family:Arial;-inkscape-font-specification:Sans"
         x="237.91042"
         y="172.92455"
         id="text3299-5-3"
         sodipodi:linespacing="125%"
         transform="matrix(0,1,1,0,0,0)"><tspan
           sodipodi:role="line"
           id="tspan3301-3-6"
           x="237.91042"
           y="172.92455"
           style="font-size:19.20000076px;font-style:normal;font-variant:normal;font-weight:normal;font-stretch:normal;font-family:Droid Sans;-inkscape-font-specification:Droid Sans">Send <tspan
   style="font-weight:bold;fill:#ff0000;-inkscape-font-specification:Droid Sans Bold"
   id="tspan3413">3</tspan></tspan></text>
<text
         xml:space="preserve"
         style="font-size:15.19999981px;font-style:normal;font-variant:normal;font-weight:normal;font-stretch:normal;line-height:125%;letter-spacing:0px;word-spacing:0px;fill:#0000ff;fill-opacity:0.50196078;stroke:none;font-family:FreeSans;-inkscape-font-specification:FreeSans"
         x="181.95879"
         y="-281.39352"
         id="text3415"
         sodipodi:linespacing="125%"
         transform="scale(1,-1)"><tspan
           sodipodi:role="line"
           id="tspan3417"
           x="181.95879"
           y="-281.39352">100 ms</tspan></text>
<text
         xml:space="preserve"
         style="font-size:15.19999981px;font-style:normal;font-variant:normal;font-weight:normal;font-stretch:normal;line-height:125%;letter-spacing:0px;word-spacing:0px;fill:#0000ff;fill-opacity:0.50196078;stroke:none;font-family:FreeSans;-inkscape-font-specification:FreeSans"
         x="230.65927"
         y="-303.23697"
         id="text3415-3"
         sodipodi:linespacing="125%"
         transform="scale(1,-1)"><tspan
           sodipodi:role="line"
           id="tspan3417-6"
           x="230.65927"
           y="-303.23697">100 ms</tspan></text>
<text
         xml:space="preserve"
         style="font-size:15.19999981px;font-style:normal;font-variant:normal;font-weight:normal;font-stretch:normal;line-height:125%;letter-spacing:0px;word-spacing:0px;fill:#0000ff;fill-opacity:0.50196078;stroke:none;font-family:FreeSans;-inkscape-font-specification:FreeSans"
         x="274.62704"
         y="-320.8241"
         id="text3415-7"
         sodipodi:linespacing="125%"
         transform="scale(1,-1)"><tspan
           sodipodi:role="line"
           id="tspan3417-7"
           x="274.62704"
           y="-320.8241">100 ms</tspan></text>
<text
         xml:space="preserve"
         style="font-size:15.19999981px;font-style:normal;font-variant:normal;font-weight:normal;font-stretch:normal;line-height:125%;letter-spacing:0px;word-spacing:0px;fill:#000000;fill-opacity:1;stroke:none;font-family:FreeSans;-inkscape-font-specification:FreeSans"
         id="text4217"
         sodipodi:linespacing="125%"
         y="-55.682289"
         x="207.23721"
         transform="matrix(0.86061775,0.5092515,0.5092515,-0.86061775,0,0)"><tspan
           sodipodi:role="line"
           id="tspan4219"
           x="207.23721"
           y="-55.682289"
           style="font-size:24px;font-weight:600;fill:#ff0000;-inkscape-font-specification:FreeSans Semi-Bold">Cautious forecast</tspan></text>
</g></g></svg>